<svg version="1.1" viewBox="0 0 100 100" xmlns="http://www.w3.org/2000/svg" xmlns:xlink="http://www.w3.org/1999/xlink">
    <g id="logo">
        <g id="logo-gear" transform="rotate(15 50 50)">
            <g id="logo-gear-teeth-outer">
                <rect x="45" y="15" width="10" height="8" fill="#236900" transform="rotate(0 50 50)" />
                <rect x="45" y="15" width="10" height="8" fill="#236900" transform="rotate(30 50 50)" />
                <rect x="45" y="15" width="10" height="8" fill="#236900" transform="rotate(60 50 50)" />
                <rect x="45" y="15" width="10" height="8" fill="#236900" transform="rotate(90 50 50)" />
                <rect x="45" y="15" width="10" height="8" fill="#236900" transform="rotate(120 50 50)" />
                <rect x="45" y="15" width="10" height="8" fill="#236900" transform="rotate(150 50 50)" />
                <rect x="45" y="15" width="10" height="8" fill="#236900" transform="rotate(180 50 50)" />
                <rect x="45" y="15" width="10" height="8" fill="#236900" transform="rotate(210 50 50)" />
                <rect x="45" y="15" width="10" height="8" fill="#236900" transform="rotate(240 50 50)" />
                <rect x="45" y="15" width="10" height="8" fill="#236900" transform="rotate(270 50 50)" />
                <rect x="45" y="15" width="10" height="8" fill="#236900" transform="rotate(300 50 50)" />
                <rect x="45" y="15" width="10" height="8" fill="#236900" transform="rotate(330 50 50)" />
            </g>
            <g id="logo-gear-circle">
                <circle cx="50" cy="50" r="27" fill="none" stroke="#40b805" stroke-width="6" />
                <circle cx="50" cy="50" r="30.5" fill="none" stroke="#236900" stroke-width="1" />
                <circle cx="50" cy="50" r="23.5" fill="none" stroke="#236900" stroke-width="1" />
            </g>
            <g id="logo-gear-teeth">
                <rect x="46" y="16" width="8" height="6" fill="#40b805" transform="rotate(0 50 50)" />
                <rect x="46" y="16" width="8" height="6" fill="#40b805" transform="rotate(30 50 50)" />
                <rect x="46" y="16" width="8" height="6" fill="#40b805" transform="rotate(60 50 50)" />
                <rect x="46" y="16" width="8" height="6" fill="#40b805" transform="rotate(90 50 50)" />
                <rect x="46" y="16" width="8" height="6" fill="#40b805" transform="rotate(120 50 50)" />
                <rect x="46" y="16" width="8" height="6" fill="#40b805" transform="rotate(150 50 50)" />
                <rect x="46" y="16" width="8" height="6" fill="#40b805" transform="rotate(180 50 50)" />
                <rect x="46" y="16" width="8" height="6" fill="#40b805" transform="rotate(210 50 50)" />
                <rect x="46" y="16" width="8" height="6" fill="#40b805" transform="rotate(240 50 50)" />
                <rect x="46" y="16" width="8" height="6" fill="#40b805" transform="rotate(270 50 50)" />
                <rect x="46" y="16" width="8" height="6" fill="#40b805" transform="rotate(300 50 50)" />
                <rect x="46" y="16" width="8" height="6" fill="#40b805" transform="rotate(330 50 50)" />
            </g>
        </g>
    </g>

    <text x="50" y="48.5" font-size="6.5" font-family="Cascadia Code" text-anchor="middle" dominant-baseline="middle"
        fill="#40b805">
        meksmith.rs
    </text>

    <text x="50" y="52" font-size="2.95" font-family="Cascadia Code" text-anchor="middle" dominant-baseline="middle"
        fill="#40b805">
        more code with less code
    </text>
</svg>
